<svg xmlns="http://www.w3.org/2000/svg" width="170.22" height="33.6" viewBox="0 0 170.22 33.6"><title>newlogo4</title><path d="M170.5,3.67a10.83,10.83,0,0,1-1.78,1.19,18.7,18.7,0,0,1-2.68.77,10.24,10.24,0,0,0-1.38.3,1.33,1.33,0,0,0-.76.73c-.37,1.58-.6,3.19-1,4.77-.2.87-.59,1.69-.87,2.54a7.49,7.49,0,0,0-.25,1,29.89,29.89,0,0,1-3.53,9.55c-1.12,2-2.47,3.88-3.68,5.83-.41.65-.85.71-1.32.16a13,13,0,0,1-1.59-2.12,33.5,33.5,0,0,1-1.52-3.4c-.08-.18,0-.44,0-.67a2,2,0,0,1,.66.16c.83.51,1.64,1,2.43,1.6.54.37.91.21,1.29-.24a15.06,15.06,0,0,0,3.14-6.52,5.05,5.05,0,0,0,0-1.23c-.08-3.66-.17-7.32-.25-11,0-.14,0-.27-.1-.64-3.08,1.19-6,.1-9-.18l-.1-.24c.52-.24,1-.51,1.55-.73a26.39,26.39,0,0,1,4.29-1.66,21.22,21.22,0,0,1,4.79-.32,3.75,3.75,0,0,0,3.35-1.26,3.54,3.54,0,0,1,1.19-.9,1.21,1.21,0,0,1,1,0c.15.07.17.53.17.82a9.47,9.47,0,0,1-.14,1.15h6.08Z" transform="translate(-0.28 -0.36)"/><path d="M47.32,34a4.56,4.56,0,0,1-.35-.77c-.36-1.3-.74-2.6-1-3.93a21.57,21.57,0,0,1-.23-2.55c-.08-1.1-.17-2.21-.23-3.31-.1-1.74-.2-3.47-.27-5.21-.08-1.91-.14-3.82-.16-5.73,0-.64-.21-.86-.83-.76s-1.43.2-2.15.29-.84.44-.9,1c-.23,2.28-.5,4.55-.69,6.83-.11,1.25,0,2.52-.14,3.78a10.45,10.45,0,0,1-.44,1.73,5.77,5.77,0,0,1-.5-.6A12.65,12.65,0,0,0,36,21a1.5,1.5,0,0,1-.37-.34A5.81,5.81,0,0,0,33.42,19a26.88,26.88,0,0,1-3.52-2.34c-.24-.17-.46-.36-.67-.52-.12.11-.19.14-.2.18-.46,2.18-1.05,4.34-1.35,6.54s-.26,4.25-.41,6.38c-.07,1-.22,1.94-.38,2.9,0,.24-.28.45-.54.86a9.51,9.51,0,0,1-.71-1.22,20.46,20.46,0,0,1-.95-6.55q-.2-6.1-.41-12.23a2.08,2.08,0,0,1,0-.66,1.54,1.54,0,0,0-.8-1.88,5.82,5.82,0,0,1-1-1.06L29,7.71a12.69,12.69,0,0,1,.33,1.86A2.22,2.22,0,0,0,30,11.18c1.17,1.14,2.21,2.42,3.36,3.59s2.19,2.12,3.31,3.16a3.7,3.7,0,0,0,.61.38V11.53l-1.19-.11a.67.67,0,0,1,0-.17c1.1-.33,1.35-1,1.12-2.11a8.32,8.32,0,0,1-.12-2.23A1.29,1.29,0,0,1,37.64,6c1.56-.9,3.15-1.73,4.85-2.65-.05.79-.1,1.46-.14,2.14,0,.91-.1,1.81-.09,2.72,0,.18.29.5.45.5,1.64,0,3.29,0,4.92-.08a3.66,3.66,0,0,0,1.6-.75c.57-.39,1-.92,1.6-1.32a1,1,0,0,1,.82-.08c.09,0,.16.44.11.65-.28,1.22-.2,1.33,1.05,1.32,1.61,0,3.22,0,4.87.11-1,.57-1.65,1.68-2.94,1.81-.88.09-1.74.34-2.61.48A1.21,1.21,0,0,0,51,12c-.27,1.63-.57,3.26-.89,4.88-.23,1.19-.52,2.36-.75,3.55-.2,1-.34,2.05-.51,3.07a5.62,5.62,0,0,1-.09.57,23.23,23.23,0,0,0-.62,2.69c-.11.95,0,1.93-.05,2.89A13.51,13.51,0,0,1,47.78,31a2.66,2.66,0,0,0,0,1.05A1.75,1.75,0,0,1,47.32,34Z" transform="translate(-0.28 -0.36)"/><path d="M134.9,29.35c.3-.42.58-.85.88-1.28,1.54-2.19,3.11-4.36,4.62-6.57.7-1,1.29-2.11,1.93-3.18a8.25,8.25,0,0,0,1-6.56,6.11,6.11,0,0,0-1.45-2.28,13.08,13.08,0,0,0-6.13-3.73c0,.41-.08.75-.1,1.09-.1,1.72-.23,3.43-.27,5.15s0,3.54,0,5.31c0,.63-.06,1.26-.08,1.9-.06,1.72-.07,3.45-.18,5.18a11.15,11.15,0,0,1-1.49,5.18,21.67,21.67,0,0,0-1.24,2.93c-1-.52-1-1.55-1.18-2.35-1.06-4.53-1-9.19-1.3-13.79-.22-3.06,0-6.14-.06-9.21a1.93,1.93,0,0,1,1-2,5.33,5.33,0,0,0,.84-.77,27,27,0,0,0-8.22-1.51c1.18-.54,2.35-1.11,3.54-1.63a10,10,0,0,1,2-.72c2.15-.4,4.25.15,6.33.59a43.66,43.66,0,0,1,4.82,1.24,16.87,16.87,0,0,1,8.09,5.19,5.1,5.1,0,0,1,.86,5.56,28.52,28.52,0,0,1-3.52,6.35,55.42,55.42,0,0,1-4.24,4.72c-1.13,1.17-2.37,2.24-3.56,3.35-.66.62-1.32,1.25-2,1.83a2.11,2.11,0,0,1-.73.26Z" transform="translate(-0.28 -0.36)"/><path d="M67,8.26,71.68,6a1.14,1.14,0,0,1,.71-.14c3.2.81,6.48,1.33,9.52,2.69l.54.24c1.81.9,2.11,2,1,3.64a20.14,20.14,0,0,1-4.7,5.13c-.73.57-1.41,1.21-2.2,1.88a5.14,5.14,0,0,0,.65.42c3.16,1.37,6.34,2.68,9.47,4.11,2,.9,3.83,2,5.72,3,1.48.81,3,1.64,4.38,2.53a12.54,12.54,0,0,1,1.56,1.37l-.13.21c-.18,0-.38.09-.53,0-1.2-.44-2.38-.93-3.57-1.37s-2.39-.87-3.59-1.26a19.42,19.42,0,0,1-4.36-1.56,13.88,13.88,0,0,0-3.53-1c-1-.26-2-.43-2.94-.76-1.7-.59-3.37-1.27-5-1.93-.62-.24-1-.19-1.07.59-.35,2.43-.75,4.85-1.15,7.27a2.33,2.33,0,0,1-.39.9.73.73,0,0,1-.53.31c-.15,0-.3-.28-.37-.47a27.2,27.2,0,0,1-1.25-7.21c-.08-1,0-2-.86-2.77-.35-.34-.3-.71.17-.93a.9.9,0,0,0,.54-1.06c-.14-2.38-.24-4.77-.32-7.15a1.13,1.13,0,0,1,.3-.79c.62-.55,1.31-1,2-1.56a2.64,2.64,0,0,0,.4-.57,2.36,2.36,0,0,0-.62-.34c-1-.26-2.12-.48-3.17-.73C67.93,8.58,67.58,8.44,67,8.26Zm6.78,10.32c1.41.88,2.26.49,2.87-.63,0-.07.13-.11.18-.17a5.9,5.9,0,0,0,1.71-4.19,1.94,1.94,0,0,0-.44-1.26,15.35,15.35,0,0,0-2.37-1.51c-.46-.25-.81,0-.88.51C74.49,13.78,74.14,16.24,73.79,18.58Z" transform="translate(-0.28 -0.36)"/><path d="M22.81,15.21a10.48,10.48,0,0,1-1.61.46c-3,.34-6,.65-9,.93-.67.06-.87.33-.83.94a12.86,12.86,0,0,0,2.93,8.05c.48.54.9,1.13,1.38,1.66,1.14,1.25,2.81,1.37,4.27,1.91a13.62,13.62,0,0,0,2,.39.91.91,0,0,1,.53.32c-1.25-.1-2.34.91-3.7.23a8.14,8.14,0,0,0-2.51-.22,33.53,33.53,0,0,1-3.77-.53,11.06,11.06,0,0,1-8-9.44c-.11-1.08,0-2.19,0-3.33H.38l-.1-.2A2.8,2.8,0,0,1,.77,16c1.13-.58,2.29-1.12,3.41-1.72a2,2,0,0,0,.67-.68A47.85,47.85,0,0,1,7.58,9.31a19.05,19.05,0,0,1,3.28-3,41.68,41.68,0,0,1,4.54-3c1.45-.84,3-1.47,4.55-2.19A4.08,4.08,0,0,1,21.33.56,2.24,2.24,0,0,1,22.82,1c.24.21.11.85.11,1.3s0,.79-.05,1.18c0,.11.07.23,0,.33C22.64,5,22.34,6.08,22,7.2c-.14.53-.27,1.07-.46,1.58a5.51,5.51,0,0,1-.64.87c-.48-1.78-.94-3.32-1.31-4.87C19.21,3,19.15,3,17.75,4a16.63,16.63,0,0,0-3.18,2.48,12.89,12.89,0,0,0-2.77,6.3c0,.19.31.61.52.65,2.67.39,5.34.74,8,1.1l2.43.32Z" transform="translate(-0.28 -0.36)"/><path d="M67.27,26.75a8.52,8.52,0,0,1-6.89,0,10.06,10.06,0,0,1-5.67-5.58c-.68-1.44-1.27-3-3-3.65-.13-.05-.25-.13-.38-.19l.07-.3c.48-.13.95-.29,1.44-.39a1.35,1.35,0,0,0,1.13-1A13.19,13.19,0,0,1,58.89,9,49.23,49.23,0,0,1,65.7,5.26c.2-.09.61-.16.66-.08a1.49,1.49,0,0,1,.19.81c0,.6-.09,1.2-.14,1.8-.09,1.15-.17,2.3-.29,3.45a2.91,2.91,0,0,1-.3.71c-.21-.16-.5-.28-.6-.48-.47-.94-.93-1.89-1.31-2.87-.21-.52-.39-.61-.82-.22a15.1,15.1,0,0,0-3.92,6.35c-.29.78,0,1,.73,1,2.45.08,4.9.14,7.35.24a3.57,3.57,0,0,1,.88.27c-.2.27-.34.7-.6.78a23.87,23.87,0,0,1-2.9.66c-1.22.22-2.45.38-3.68.57-.16,0-.32.1-.48.12-1.14.14-1.19.18-.87,1.32a8.79,8.79,0,0,0,4.5,5.87,22.75,22.75,0,0,0,2.75.92A2.55,2.55,0,0,1,67.27,26.75Z" transform="translate(-0.28 -0.36)"/><path d="M109.61,3.22a14.29,14.29,0,0,1,0,1.46c-.3,3.25-.61,6.51-.91,9.77,0,.05,0,.1.11.29l2.94-3.89a5.25,5.25,0,0,1,.36,1c.29,1.94.6,3.87.82,5.82.15,1.38.13,2.77.25,4.16a12.51,12.51,0,0,1,.18,1.95,29.86,29.86,0,0,1-3.26-7.9c-1.67,2.21-2.08,4.65-2.84,7-.85-.46-.68-1.21-.71-1.74-.14-2.15-.15-4.31-.22-6.46,0-.25-.07-.49-.07-.74,0-.56-.3-.73-.82-.62-2.21.46-2.12-.05-2.26,2.4s-.35,5-.5,7.54c0,.79,0,1.58,0,2.36l-.28.13a9.73,9.73,0,0,1-1-1.67,20.87,20.87,0,0,1-1-6.93c0-1.07-.19-2.14-.29-3.22l-5.67.37a13.86,13.86,0,0,1,1.68-1,32,32,0,0,1,3.3-1.11c.52-.14.76-.3.59-.83a1.19,1.19,0,0,1,.51-1.48c1.1-.93,2.09-2,3.22-3.08a2.94,2.94,0,0,1,.21.81c0,1-.14,2.1-.15,3.15,0,.34.16.93.34,1a7.53,7.53,0,0,0,2,.09,1.3,1.3,0,0,0,.12-.52c0-1.75,0-3.49,0-5.24,0-.21,0-.49.15-.6.95-.8,1.93-1.57,2.9-2.34Z" transform="translate(-0.28 -0.36)"/><path d="M120.77,24.66c-2.45-.54-4.65-1.31-6-3.63a4.5,4.5,0,0,1,0-4.3,12.77,12.77,0,0,1,4.81-5.26,4.17,4.17,0,0,1,1-.32,9.22,9.22,0,0,1,.09,2.25,9.06,9.06,0,0,1-1.84,3.93,6.89,6.89,0,0,0-1.08,1.78,2.5,2.5,0,0,0,0,1.41,5.11,5.11,0,0,0,2.69,3.53,1.4,1.4,0,0,1,.37.32C120.74,24.42,120.73,24.52,120.77,24.66Zm-3.56-6a9.13,9.13,0,0,0,1.55-4.9C117.31,14,116.24,17.3,117.21,18.66Z" transform="translate(-0.28 -0.36)"/></svg>